<svg width="80" height="80" viewBox="0 0 80 80" fill="none" xmlns="http://www.w3.org/2000/svg">
<path d="M18.625 0.135414C18.0625 0.1875 17.6042 0.270828 17.6042 0.3125C17.6042 0.364578 17.3229 0.427078 16.9792 0.46875C16.6354 0.510414 16.3542 0.572914 16.3542 0.625C16.3542 0.666664 16.125 0.729164 15.8333 0.770828C15.5521 0.8125 15.2917 0.875 15.2708 0.927078C15.2396 0.979164 15.0521 1.05208 14.8542 1.08333C14.6458 1.125 14.3542 1.21875 14.1979 1.30208C14.0417 1.38541 13.8229 1.45833 13.7292 1.45833C13.625 1.45833 13.5417 1.5 13.5417 1.55208C13.5417 1.60416 13.4062 1.67708 13.2292 1.71875C13.0625 1.76041 12.9167 1.83333 12.9167 1.88541C12.9167 1.9375 12.8646 1.97916 12.8021 1.97916C12.6562 1.97916 11.7396 2.41666 11.6667 2.52083C11.6354 2.55208 11.4792 2.625 11.3229 2.65625C11.1667 2.69791 11.0417 2.77083 11.0417 2.8125C11.0417 2.85416 10.9271 2.92708 10.7812 2.95833C10.6354 3 10.5208 3.07291 10.5208 3.125C10.5208 3.1875 10.4479 3.22916 10.3646 3.22916C10.2708 3.22916 10.1771 3.29166 10.1458 3.375C10.1146 3.45833 9.97917 3.55208 9.83333 3.58333C9.69792 3.625 9.58333 3.69791 9.58333 3.75C9.58333 3.8125 9.51042 3.85416 9.42708 3.85416C9.33333 3.85416 9.23958 3.92708 9.20833 4.01041C9.16667 4.09375 9.08333 4.16666 9.01042 4.16666C8.94792 4.16666 8.76042 4.27083 8.61458 4.39583C8.46875 4.53125 8.14583 4.8125 7.89583 5.02083C6.21875 6.44791 6.44792 6.21875 5.02083 7.89583C4.8125 8.14583 4.53125 8.46875 4.39583 8.61458C4.27083 8.76041 4.16667 8.94791 4.16667 9.01041C4.16667 9.08333 4.09375 9.16666 4.01042 9.20833C3.92708 9.23958 3.85417 9.33333 3.85417 9.42708C3.85417 9.51041 3.8125 9.58333 3.75 9.58333C3.69792 9.58333 3.625 9.69791 3.58333 9.83333C3.55208 9.97916 3.45833 10.1146 3.375 10.1458C3.29167 10.1771 3.22917 10.2708 3.22917 10.3646C3.22917 10.4479 3.1875 10.5208 3.125 10.5208C3.07292 10.5208 3 10.6354 2.95833 10.7812C2.92708 10.9271 2.85417 11.0417 2.8125 11.0417C2.76042 11.0417 2.69792 11.1771 2.65625 11.3542C2.61458 11.5208 2.55208 11.6667 2.5 11.6667C2.44792 11.6667 2.38542 11.8021 2.34375 11.9792C2.30208 12.1458 2.23958 12.2917 2.1875 12.2917C2.13542 12.2917 2.07292 12.4271 2.03125 12.6042C1.98958 12.7708 1.92708 12.9167 1.875 12.9167C1.82292 12.9167 1.76042 13.0521 1.71875 13.2292C1.67708 13.3958 1.60417 13.5417 1.55208 13.5417C1.5 13.5417 1.45833 13.625 1.45833 13.7188C1.45833 13.8229 1.38542 14.0417 1.30208 14.1979C1.21875 14.3542 1.125 14.6458 1.08333 14.8542C1.05208 15.0521 0.979167 15.2396 0.927083 15.2708C0.875 15.2917 0.8125 15.5521 0.770833 15.8333C0.729167 16.125 0.666667 16.3542 0.625 16.3542C0.583333 16.3542 0.510417 16.625 0.46875 16.9479C0.427083 17.2812 0.354167 17.5729 0.3125 17.6042C0.0416667 17.7812 0 20.7188 0 39.9583C0 59.2812 0.0416667 62.3958 0.322917 62.3958C0.364583 62.3958 0.427083 62.6771 0.46875 63.0208C0.510417 63.3646 0.572917 63.6458 0.625 63.6458C0.666667 63.6458 0.729167 63.875 0.770833 64.1667C0.8125 64.4479 0.875 64.7083 0.927083 64.7292C0.979167 64.7604 1.05208 64.9479 1.08333 65.1458C1.125 65.3542 1.21875 65.6458 1.30208 65.8021C1.38542 65.9583 1.45833 66.1771 1.45833 66.2708C1.45833 66.375 1.5 66.4583 1.55208 66.4583C1.60417 66.4583 1.67708 66.6042 1.71875 66.7708C1.76042 66.9479 1.82292 67.0833 1.875 67.0833C1.92708 67.0833 1.98958 67.2292 2.03125 67.3958C2.07292 67.5729 2.13542 67.7083 2.1875 67.7083C2.23958 67.7083 2.30208 67.8542 2.34375 68.0208C2.38542 68.1979 2.44792 68.3333 2.5 68.3333C2.55208 68.3333 2.61458 68.4792 2.65625 68.6458C2.69792 68.8229 2.76042 68.9583 2.8125 68.9583C2.85417 68.9583 2.92708 69.0729 2.95833 69.2188C3 69.3646 3.07292 69.4792 3.125 69.4792C3.1875 69.4792 3.22917 69.5521 3.22917 69.6354C3.22917 69.7292 3.29167 69.8229 3.375 69.8542C3.45833 69.8854 3.55208 70.0208 3.58333 70.1667C3.625 70.3021 3.69792 70.4167 3.75 70.4167C3.8125 70.4167 3.85417 70.4896 3.85417 70.5729C3.85417 70.6667 3.92708 70.7604 4.01042 70.7917C4.09375 70.8333 4.16667 70.9167 4.16667 70.9896C4.16667 71.0729 4.3125 71.2708 4.47917 71.4375C4.65625 71.6146 4.79167 71.7917 4.79167 71.8333C4.79167 71.875 4.95833 72.0625 5.15625 72.2604C5.35417 72.4583 5.52083 72.6458 5.52083 72.6979C5.52083 72.8021 7.19792 74.4792 7.30208 74.4792C7.35417 74.4792 7.54167 74.6458 7.73958 74.8438C7.9375 75.0417 8.125 75.2083 8.16667 75.2083C8.20833 75.2083 8.38542 75.3542 8.5625 75.5208C8.72917 75.6979 8.92708 75.8333 9.01042 75.8333C9.08333 75.8333 9.16667 75.9062 9.20833 75.9896C9.23958 76.0729 9.33333 76.1458 9.42708 76.1458C9.51042 76.1458 9.58333 76.1875 9.58333 76.25C9.58333 76.3021 9.69792 76.375 9.83333 76.4167C9.97917 76.4479 10.1146 76.5417 10.1458 76.625C10.1771 76.7083 10.2708 76.7708 10.3646 76.7708C10.4479 76.7708 10.5208 76.8125 10.5208 76.875C10.5208 76.9271 10.6354 77 10.7812 77.0417C10.9271 77.0729 11.0417 77.1458 11.0417 77.1875C11.0417 77.2396 11.1771 77.3021 11.3542 77.3438C11.5312 77.3854 11.6667 77.4479 11.6667 77.5C11.6667 77.5521 11.8021 77.6146 11.9792 77.6562C12.1458 77.6979 12.2917 77.7604 12.2917 77.8125C12.2917 77.8646 12.4271 77.9271 12.6042 77.9688C12.7708 78.0104 12.9167 78.0729 12.9167 78.125C12.9167 78.1771 13.0625 78.2396 13.2292 78.2812C13.4062 78.3229 13.5417 78.3958 13.5417 78.4479C13.5417 78.5 13.625 78.5417 13.7292 78.5417C13.8229 78.5417 14.0417 78.6146 14.1979 78.6979C14.3542 78.7812 14.6458 78.875 14.8542 78.9167C15.0521 78.9479 15.2396 79.0208 15.2708 79.0729C15.2917 79.125 15.5521 79.1875 15.8333 79.2292C16.125 79.2708 16.3542 79.3333 16.3542 79.375C16.3542 79.4271 16.6354 79.4896 16.9792 79.5312C17.3229 79.5729 17.6042 79.6354 17.6042 79.6771C17.6042 79.9583 20.7188 80 40 80C59.2812 80 62.3958 79.9583 62.3958 79.6771C62.3958 79.6354 62.6771 79.5729 63.0208 79.5312C63.3646 79.4896 63.6458 79.4271 63.6458 79.375C63.6458 79.3333 63.875 79.2708 64.1667 79.2292C64.4479 79.1875 64.7083 79.125 64.7292 79.0729C64.7604 79.0208 64.9479 78.9479 65.1458 78.9167C65.3542 78.875 65.6458 78.7812 65.8021 78.6979C65.9583 78.6146 66.1771 78.5417 66.2812 78.5417C66.375 78.5417 66.4583 78.5 66.4583 78.4479C66.4583 78.3958 66.6042 78.3229 66.7708 78.2812C66.9479 78.2396 67.0833 78.1771 67.0833 78.125C67.0833 78.0729 67.2292 78.0104 67.3958 77.9688C67.5729 77.9271 67.7083 77.8646 67.7083 77.8125C67.7083 77.7604 67.8542 77.6979 68.0208 77.6562C68.1979 77.6146 68.3333 77.5521 68.3333 77.5C68.3333 77.4479 68.4792 77.3854 68.6458 77.3438C68.8229 77.3021 68.9583 77.2396 68.9583 77.1875C68.9583 77.1458 69.0729 77.0729 69.2188 77.0417C69.3646 77 69.4792 76.9271 69.4792 76.875C69.4792 76.8125 69.5521 76.7708 69.6354 76.7708C69.7292 76.7708 69.8229 76.7083 69.8542 76.625C69.8854 76.5417 70.0208 76.4479 70.1667 76.4167C70.3021 76.375 70.4167 76.3021 70.4167 76.25C70.4167 76.1875 70.4896 76.1458 70.5729 76.1458C70.6667 76.1458 70.7604 76.0729 70.7917 75.9896C70.8333 75.9062 70.9167 75.8333 70.9896 75.8333C71.0729 75.8333 71.2708 75.6875 71.4375 75.5208C71.6146 75.3438 71.7917 75.2083 71.8333 75.2083C71.875 75.2083 72.0625 75.0417 72.2604 74.8438C72.4583 74.6458 72.6458 74.4792 72.6979 74.4792C72.8021 74.4792 74.4792 72.8021 74.4792 72.6979C74.4792 72.6458 74.6458 72.4583 74.8438 72.2604C75.0417 72.0625 75.2083 71.875 75.2083 71.8333C75.2083 71.7917 75.3542 71.6146 75.5208 71.4375C75.6979 71.2708 75.8333 71.0729 75.8333 70.9896C75.8333 70.9167 75.9062 70.8333 75.9896 70.7917C76.0729 70.7604 76.1458 70.6667 76.1458 70.5729C76.1458 70.4896 76.1875 70.4167 76.25 70.4167C76.3021 70.4167 76.375 70.3021 76.4167 70.1667C76.4479 70.0208 76.5417 69.8854 76.625 69.8542C76.7083 69.8229 76.7708 69.7292 76.7708 69.6354C76.7708 69.5521 76.8125 69.4792 76.875 69.4792C76.9271 69.4792 77 69.3646 77.0417 69.2188C77.0729 69.0729 77.1458 68.9583 77.1875 68.9583C77.2292 68.9583 77.3021 68.8333 77.3438 68.6771C77.375 68.5208 77.4479 68.3646 77.4792 68.3333C77.5833 68.2604 78.0208 67.3438 78.0208 67.1979C78.0208 67.1354 78.0625 67.0833 78.1146 67.0833C78.1667 67.0833 78.2396 66.9479 78.2812 66.7708C78.3229 66.6042 78.3958 66.4583 78.4479 66.4583C78.5 66.4583 78.5417 66.375 78.5417 66.2708C78.5417 66.1771 78.6146 65.9583 78.6979 65.8021C78.7812 65.6458 78.875 65.3542 78.9167 65.1458C78.9479 64.9479 79.0208 64.7604 79.0729 64.7292C79.125 64.7083 79.1875 64.4479 79.2292 64.1667C79.2708 63.875 79.3333 63.6458 79.375 63.6458C79.4271 63.6458 79.4896 63.3646 79.5312 63.0208C79.5729 62.6771 79.6354 62.3958 79.6771 62.3958C79.9583 62.3958 80 59.2812 80 40C80 20.7188 79.9583 17.6042 79.6771 17.6042C79.6354 17.6042 79.5729 17.3229 79.5312 16.9792C79.4896 16.6354 79.4271 16.3542 79.375 16.3542C79.3333 16.3542 79.2708 16.125 79.2292 15.8333C79.1875 15.5521 79.125 15.2917 79.0729 15.2708C79.0208 15.2396 78.9479 15.0521 78.9167 14.8542C78.875 14.6458 78.7812 14.3542 78.6979 14.1979C78.6146 14.0417 78.5417 13.8229 78.5417 13.7188C78.5417 13.625 78.5 13.5417 78.4479 13.5417C78.3958 13.5417 78.3229 13.3958 78.2812 13.2292C78.2396 13.0521 78.1667 12.9167 78.1146 12.9167C78.0625 12.9167 78.0208 12.8646 78.0208 12.8021C78.0208 12.6562 77.5833 11.7396 77.4792 11.6667C77.4479 11.6354 77.375 11.4792 77.3438 11.3229C77.3021 11.1667 77.2292 11.0417 77.1875 11.0417C77.1458 11.0417 77.0729 10.9271 77.0417 10.7812C77 10.6354 76.9271 10.5208 76.875 10.5208C76.8125 10.5208 76.7708 10.4479 76.7708 10.3646C76.7708 10.2708 76.7083 10.1771 76.625 10.1458C76.5417 10.1146 76.4479 9.97916 76.4167 9.83333C76.375 9.69791 76.3021 9.58333 76.25 9.58333C76.1875 9.58333 76.1458 9.51041 76.1458 9.42708C76.1458 9.33333 76.0729 9.23958 75.9896 9.20833C75.9062 9.16666 75.8333 9.08333 75.8333 9.01041C75.8333 8.94791 75.7292 8.76041 75.6042 8.61458C75.4688 8.46875 75.1875 8.14583 74.9792 7.89583C73.5521 6.21875 73.7812 6.44791 72.1042 5.02083C71.8542 4.8125 71.5312 4.53125 71.3854 4.39583C71.2396 4.27083 71.0521 4.16666 70.9896 4.16666C70.9167 4.16666 70.8333 4.09375 70.7917 4.01041C70.7604 3.92708 70.6667 3.85416 70.5729 3.85416C70.4896 3.85416 70.4167 3.8125 70.4167 3.75C70.4167 3.69791 70.3021 3.625 70.1667 3.58333C70.0208 3.55208 69.8854 3.45833 69.8542 3.375C69.8229 3.29166 69.7292 3.22916 69.6354 3.22916C69.5521 3.22916 69.4792 3.1875 69.4792 3.125C69.4792 3.07291 69.3646 3 69.2188 2.95833C69.0729 2.92708 68.9583 2.85416 68.9583 2.8125C68.9583 2.77083 68.8333 2.69791 68.6771 2.65625C68.5208 2.625 68.3646 2.55208 68.3333 2.52083C68.2604 2.41666 67.3438 1.97916 67.1979 1.97916C67.1354 1.97916 67.0833 1.9375 67.0833 1.88541C67.0833 1.83333 66.9479 1.76041 66.7708 1.71875C66.6042 1.67708 66.4583 1.60416 66.4583 1.55208C66.4583 1.5 66.375 1.45833 66.2812 1.45833C66.1771 1.45833 65.9583 1.38541 65.8021 1.30208C65.6458 1.21875 65.3542 1.125 65.1458 1.08333C64.9479 1.05208 64.7604 0.979164 64.7292 0.927078C64.7083 0.875 64.4479 0.8125 64.1667 0.770828C63.875 0.729164 63.6458 0.666664 63.6458 0.625C63.6458 0.572914 63.3646 0.510414 63.0208 0.46875C62.6771 0.427078 62.3958 0.364578 62.3958 0.322914C62.3958 0.28125 61.8229 0.1875 61.125 0.125C59.5 -0.03125 20.1875 -0.0208359 18.625 0.135414ZM59.9062 4.95833C59.9896 5.03125 60.4167 5.11458 60.8646 5.15625C61.3021 5.19791 61.6667 5.26041 61.6667 5.3125C61.6667 5.35416 61.8958 5.41666 62.1771 5.45833C62.4688 5.5 62.8229 5.59375 62.9896 5.67708C63.1458 5.76041 63.3646 5.83333 63.4583 5.83333C63.5521 5.83333 63.6667 5.875 63.6979 5.9375C63.7292 5.98958 63.8438 6.04166 63.9375 6.04166C64.0312 6.05208 64.3021 6.13541 64.5312 6.25C64.7604 6.36458 65.0104 6.44791 65.0833 6.45833C65.1458 6.45833 65.2083 6.5 65.2083 6.55208C65.2083 6.60416 65.3542 6.67708 65.5208 6.71875C65.6979 6.76041 65.8333 6.82291 65.8333 6.875C65.8333 6.91666 65.9479 6.98958 66.0938 7.02083C66.2396 7.0625 66.3542 7.125 66.3542 7.17708C66.3542 7.22916 66.4896 7.30208 66.6562 7.34375C66.8229 7.375 66.9896 7.47916 67.0208 7.5625C67.0521 7.64583 67.1458 7.70833 67.2396 7.70833C67.3229 7.70833 67.3958 7.73958 67.3958 7.78125C67.3958 7.83333 67.5833 7.97916 67.8125 8.125C68.0417 8.26041 68.2292 8.41666 68.2292 8.45833C68.2292 8.5 68.2812 8.54166 68.3438 8.54166C68.4167 8.54166 68.625 8.70833 68.8229 8.90625C69.0208 9.10416 69.2083 9.27083 69.25 9.27083C69.375 9.27083 70.3229 10.2083 70.7812 10.7812C71 11.0729 71.25 11.3438 71.3229 11.3854C71.3958 11.4271 71.4583 11.5417 71.4583 11.6146C71.4583 11.6979 71.5 11.7708 71.5417 11.7708C71.5833 11.7708 71.7396 11.9583 71.875 12.1875C72.0208 12.4167 72.1667 12.6042 72.2188 12.6042C72.2604 12.6042 72.2917 12.6771 72.2917 12.7604C72.2917 12.8542 72.3542 12.9479 72.4375 12.9792C72.5208 13.0104 72.625 13.1771 72.6562 13.3438C72.6979 13.5104 72.7708 13.6458 72.8229 13.6458C72.875 13.6458 72.9375 13.7604 72.9792 13.9062C73.0104 14.0521 73.0833 14.1667 73.125 14.1667C73.1771 14.1667 73.2396 14.3021 73.2812 14.4792C73.3229 14.6458 73.3958 14.7917 73.4375 14.7917C73.4896 14.7917 73.5625 14.9583 73.6042 15.1562C73.6354 15.3542 73.7083 15.5208 73.7604 15.5208C73.8021 15.5208 73.875 15.6875 73.9167 15.8854C73.9479 16.0833 74.0208 16.2812 74.0729 16.3125C74.125 16.3438 74.1667 16.4479 74.1667 16.5417C74.1667 16.6354 74.2396 16.8542 74.3229 17.0104C74.4062 17.1771 74.5 17.5312 74.5417 17.8229C74.5833 18.1042 74.6458 18.3333 74.6875 18.3333C74.7396 18.3333 74.8021 18.6979 74.8438 19.1354C74.8854 19.5833 74.9688 20.0104 75.0417 20.0938C75.125 20.1979 75.1562 25.4688 75.1562 40C75.1562 54.5312 75.125 59.8021 75.0417 59.9062C74.9688 59.9896 74.8854 60.4167 74.8438 60.8542C74.8021 61.3021 74.7396 61.6667 74.6875 61.6667C74.6458 61.6667 74.5833 61.8958 74.5417 62.1771C74.5 62.4688 74.4062 62.8229 74.3229 62.9896C74.2396 63.1458 74.1667 63.3646 74.1667 63.4583C74.1667 63.5521 74.125 63.6562 74.0729 63.6875C74.0208 63.7188 73.9479 63.9167 73.9167 64.1146C73.875 64.3125 73.8021 64.4792 73.7604 64.4792C73.7083 64.4792 73.6354 64.6458 73.6042 64.8438C73.5625 65.0417 73.4896 65.2083 73.4375 65.2083C73.3958 65.2083 73.3229 65.3542 73.2812 65.5208C73.2396 65.6979 73.1667 65.8333 73.1146 65.8333C73.0625 65.8333 73 65.9479 72.9583 66.0938C72.9271 66.2396 72.8646 66.3542 72.8229 66.3542C72.7812 66.3542 72.6979 66.4792 72.6354 66.6354C72.5104 66.9167 72.2917 67.2917 72.1875 67.3958C72.1562 67.4271 72.0208 67.6146 71.875 67.8125C71.5729 68.2604 71.5 68.3438 71.0729 68.8229C70.8854 69.0312 70.7292 69.2292 70.7292 69.2708C70.7292 69.375 69.3646 70.7292 69.2604 70.7292C69.2188 70.7292 69.0208 70.8958 68.8229 71.0938C68.625 71.2917 68.4167 71.4583 68.3438 71.4583C68.2812 71.4583 68.2292 71.5 68.2292 71.5417C68.2292 71.5833 68.0417 71.7396 67.8125 71.875C67.5833 72.0208 67.3958 72.1667 67.3958 72.2083C67.3958 72.2604 67.3229 72.2917 67.2396 72.2917C67.1458 72.2917 67.0521 72.3542 67.0208 72.4375C66.9896 72.5208 66.8229 72.625 66.6562 72.6562C66.4896 72.6979 66.3542 72.7708 66.3542 72.8229C66.3542 72.875 66.2396 72.9375 66.0938 72.9792C65.9479 73.0104 65.8333 73.0833 65.8333 73.125C65.8333 73.1771 65.6979 73.2396 65.5208 73.2812C65.3542 73.3229 65.2083 73.3958 65.2083 73.4375C65.2083 73.4896 65.0417 73.5625 64.8438 73.6042C64.6458 73.6354 64.4792 73.7083 64.4792 73.7604C64.4792 73.8021 64.3125 73.875 64.1146 73.9167C63.9167 73.9479 63.7188 74.0208 63.6875 74.0729C63.6562 74.125 63.5521 74.1667 63.4583 74.1667C63.3646 74.1667 63.1458 74.2396 62.9896 74.3229C62.8229 74.4062 62.4688 74.5 62.1771 74.5417C61.8958 74.5833 61.6667 74.6458 61.6667 74.6875C61.6667 74.7396 61.3021 74.8021 60.8646 74.8438C60.4167 74.8854 59.9896 74.9688 59.9062 75.0417C59.6979 75.2083 20.3021 75.2083 20.0938 75.0417C20.0104 74.9688 19.5833 74.8854 19.1458 74.8438C18.6979 74.8021 18.3333 74.7396 18.3333 74.6875C18.3333 74.6458 18.1042 74.5833 17.8229 74.5417C17.5312 74.5 17.1771 74.4062 17.0104 74.3229C16.8542 74.2396 16.6354 74.1667 16.5417 74.1667C16.4479 74.1667 16.3438 74.125 16.3125 74.0729C16.2812 74.0208 16.0833 73.9479 15.8854 73.9167C15.6875 73.875 15.5208 73.8021 15.5208 73.75C15.5208 73.6979 15.3542 73.625 15.1562 73.5833C14.9583 73.5521 14.7917 73.4792 14.7917 73.4375C14.7917 73.3854 14.6562 73.3229 14.4792 73.2812C14.3125 73.2396 14.1667 73.1667 14.1667 73.1146C14.1667 73.0625 14.0521 73 13.9062 72.9583C13.7604 72.9271 13.6458 72.8646 13.6458 72.8229C13.6458 72.7812 13.5208 72.6979 13.3646 72.6354C13.0833 72.5104 12.7083 72.2917 12.6042 72.1875C12.5729 72.1562 12.3854 72.0208 12.1875 71.875C11.7396 71.5729 11.6562 71.5 11.1771 71.0625C10.9688 70.8854 10.7708 70.7292 10.7292 70.7292C10.625 70.7292 9.27083 69.375 9.27083 69.2708C9.27083 69.2292 9.11458 69.0312 8.92708 68.8229C8.5 68.3438 8.42708 68.2604 8.125 67.8125C7.97917 67.6146 7.84375 67.4271 7.8125 67.3958C7.72917 67.3125 7.51042 66.9479 7.375 66.6667C7.30208 66.5208 7.1875 66.3438 7.11458 66.2708C7.04167 66.1979 6.97917 66.0625 6.97917 65.9792C6.97917 65.8958 6.9375 65.8333 6.88542 65.8333C6.83333 65.8333 6.76042 65.6979 6.71875 65.5208C6.67708 65.3542 6.60417 65.2083 6.5625 65.2083C6.51042 65.2083 6.4375 65.0417 6.39583 64.8438C6.36458 64.6458 6.29167 64.4792 6.23958 64.4792C6.19792 64.4792 6.125 64.3125 6.08333 64.1146C6.05208 63.9167 5.97917 63.7188 5.92708 63.6875C5.875 63.6562 5.83333 63.5521 5.83333 63.4583C5.83333 63.3646 5.76042 63.1458 5.67708 62.9896C5.59375 62.8229 5.5 62.4688 5.45833 62.1771C5.41667 61.8958 5.35417 61.6667 5.3125 61.6667C5.26042 61.6667 5.19792 61.3021 5.15625 60.8542C5.11458 60.4167 5.03125 59.9896 4.95833 59.9062C4.79167 59.6979 4.79167 20.3021 4.95833 20.0938C5.03125 20.0104 5.11458 19.5833 5.15625 19.1354C5.19792 18.6979 5.26042 18.3333 5.3125 18.3333C5.35417 18.3333 5.42708 18.0729 5.46875 17.7604C5.5 17.4479 5.58333 17.1667 5.63542 17.1354C5.6875 17.0938 5.72917 16.9896 5.72917 16.8958C5.72917 16.8021 5.79167 16.5938 5.875 16.4375C5.95833 16.2812 6.05208 16.0208 6.09375 15.8438C6.13542 15.6667 6.19792 15.5208 6.25 15.5208C6.29167 15.5208 6.36458 15.3542 6.39583 15.1562C6.4375 14.9583 6.51042 14.7917 6.5625 14.7917C6.60417 14.7917 6.67708 14.6458 6.71875 14.4792C6.76042 14.3021 6.82292 14.1667 6.875 14.1667C6.91667 14.1667 6.98958 14.0521 7.02083 13.9062C7.0625 13.7604 7.125 13.6458 7.17708 13.6458C7.22917 13.6458 7.30208 13.5104 7.34375 13.3438C7.375 13.1771 7.47917 13.0104 7.5625 12.9792C7.64583 12.9479 7.70833 12.8542 7.70833 12.7604C7.70833 12.6771 7.73958 12.6042 7.79167 12.6042C7.83333 12.6042 7.97917 12.4167 8.125 12.1875C8.26042 11.9583 8.41667 11.7708 8.45833 11.7708C8.5 11.7708 8.54167 11.7188 8.54167 11.6562C8.54167 11.5833 8.70833 11.375 8.90625 11.1771C9.10417 10.9792 9.27083 10.7812 9.27083 10.7396C9.27083 10.6354 10.625 9.27083 10.7292 9.27083C10.7708 9.27083 10.9688 9.11458 11.1771 8.92708C11.6667 8.47916 12.1667 8.09375 12.4062 7.97916C12.5208 7.92708 12.6042 7.84375 12.6042 7.79166C12.6042 7.75 12.6771 7.70833 12.7604 7.70833C12.8542 7.70833 12.9479 7.64583 12.9792 7.5625C13.0104 7.47916 13.1771 7.375 13.3438 7.34375C13.5104 7.30208 13.6458 7.22916 13.6458 7.17708C13.6458 7.125 13.7604 7.0625 13.9062 7.02083C14.0521 6.98958 14.1667 6.91666 14.1667 6.875C14.1667 6.82291 14.3125 6.76041 14.4792 6.71875C14.6562 6.67708 14.7917 6.60416 14.7917 6.5625C14.7917 6.51041 14.9583 6.4375 15.1562 6.39583C15.3542 6.36458 15.5208 6.29166 15.5208 6.25C15.5208 6.19791 15.6667 6.13541 15.8438 6.09375C16.0208 6.05208 16.2812 5.95833 16.4375 5.875C16.5938 5.79166 16.8021 5.72916 16.8958 5.72916C16.9896 5.72916 17.0938 5.6875 17.1354 5.63541C17.1667 5.58333 17.4479 5.5 17.7604 5.46875C18.0729 5.42708 18.3333 5.35416 18.3333 5.3125C18.3333 5.26041 18.6979 5.19791 19.1458 5.15625C19.5833 5.11458 20 5.04166 20.0625 4.98958C20.25 4.84375 21.7396 4.83333 41 4.83333C54.7812 4.84375 59.8021 4.875 59.9062 4.95833Z" fill="black"/>
<path d="M13.4896 21.2501C13.4583 21.3022 13.2708 21.3543 13.0938 21.3543C12.9063 21.3647 12.5729 21.448 12.3438 21.5626C12.1146 21.6772 11.8646 21.7605 11.8021 21.7709C11.7292 21.7709 11.6667 21.8126 11.6667 21.8751C11.6667 21.9272 11.6042 21.9793 11.5208 21.9793C11.1563 21.9793 9.79168 23.573 9.79168 23.9897C9.79168 24.073 9.73959 24.1668 9.68751 24.1876C9.62501 24.2084 9.54168 24.4897 9.51043 24.823C9.47918 25.1459 9.40626 25.4168 9.36459 25.4168C9.23959 25.4168 9.23959 26.6355 9.36459 26.7084C9.40626 26.7397 9.47918 27.0313 9.51043 27.3542C9.54168 27.6876 9.61459 27.9792 9.66668 28.0105C9.71876 28.0417 9.80209 28.2709 9.84376 28.5105C9.88543 28.7605 9.94793 28.9584 10 28.9584C10.0417 28.9584 10.1146 29.1667 10.1458 29.4272C10.1875 29.6876 10.2604 29.8959 10.3021 29.8959C10.3542 29.8959 10.4167 30.0834 10.4583 30.3126C10.4896 30.5417 10.5625 30.7292 10.6146 30.7292C10.6667 30.7292 10.7396 30.8959 10.7708 31.0938C10.8125 31.2917 10.9063 31.5834 10.9896 31.7397C11.0729 31.8959 11.1458 32.1147 11.1458 32.2084C11.1458 32.3126 11.1875 32.3959 11.2396 32.3959C11.2917 32.3959 11.3646 32.5417 11.4063 32.7188C11.4479 32.8959 11.5417 33.1563 11.625 33.3126C11.7083 33.4688 11.7708 33.6772 11.7708 33.7709C11.7708 33.8751 11.8125 33.9584 11.8646 33.9584C11.9167 33.9584 11.9896 34.0938 12.0313 34.2709C12.0729 34.4376 12.1354 34.5834 12.1875 34.5834C12.2292 34.5834 12.2917 34.7709 12.3333 35.0001C12.3646 35.2292 12.4375 35.4167 12.4896 35.4167C12.5417 35.4167 12.6146 35.5522 12.6563 35.7292C12.6979 35.8959 12.7708 36.0417 12.8229 36.0417C12.875 36.0417 12.9167 36.1042 12.9167 36.1667C12.9271 36.2397 13.0104 36.4897 13.125 36.7188C13.2396 36.948 13.3229 37.198 13.3333 37.2605C13.3333 37.3334 13.375 37.3959 13.4271 37.3959C13.4792 37.3959 13.5521 37.5313 13.5938 37.7084C13.6354 37.8751 13.6979 38.0209 13.75 38.0209C13.7917 38.0209 13.8646 38.1459 13.9063 38.3022C13.9375 38.4584 14.0104 38.6147 14.0417 38.6459C14.0833 38.6772 14.2292 38.9272 14.375 39.2188C14.5208 39.5001 14.6667 39.7605 14.6979 39.7917C14.7396 39.823 14.8021 39.9584 14.8438 40.1042C14.8854 40.2501 14.9479 40.3855 14.9896 40.4167C15.0938 40.5001 15.3125 40.8647 15.4479 41.1667C15.5104 41.3334 15.6042 41.4584 15.6458 41.4584C15.6875 41.4584 15.7292 41.5209 15.7292 41.6042C15.7292 41.6876 15.7917 41.823 15.8646 41.8959C16.0208 42.0834 16.2188 42.3751 16.375 42.7084C16.4479 42.8542 16.5625 43.0313 16.6354 43.1042C16.7083 43.1772 16.7708 43.3022 16.7708 43.3855C16.7708 43.4584 16.8438 43.5417 16.9271 43.5834C17.0104 43.6147 17.0833 43.7084 17.0833 43.8022C17.0833 43.8855 17.125 43.9584 17.1875 43.9584C17.2396 43.9584 17.3125 44.073 17.3542 44.2084C17.3854 44.3542 17.4792 44.4897 17.5625 44.5209C17.6458 44.5522 17.7083 44.6459 17.7083 44.7397C17.7083 44.823 17.7396 44.8959 17.7917 44.8959C17.8333 44.8959 17.9792 45.0834 18.125 45.3126C18.2604 45.5417 18.4167 45.7292 18.4583 45.7292C18.5 45.7292 18.5417 45.8022 18.5417 45.8855C18.5417 45.9584 18.6042 46.073 18.6771 46.1147C18.75 46.1563 18.9167 46.3751 19.0625 46.5834C19.2083 46.8022 19.3542 46.9792 19.4063 46.9792C19.4479 46.9792 19.4792 47.0522 19.4792 47.1355C19.4792 47.2084 19.5417 47.323 19.6146 47.3647C19.6875 47.4063 19.8542 47.5834 19.9792 47.7605C20.5833 48.573 24.5625 52.7084 24.7396 52.7084C24.7813 52.7084 24.9167 52.8126 25.0417 52.948C25.1563 53.073 25.4063 53.2813 25.5729 53.4167C26.3125 53.9792 26.5 54.1251 26.6771 54.3022C26.7917 54.3959 26.9167 54.4792 26.9583 54.4792C27.0104 54.4792 27.1458 54.5626 27.2708 54.6667C27.7813 55.0834 27.9688 55.2084 28.0938 55.2084C28.1667 55.2084 28.2292 55.2397 28.2292 55.2917C28.2292 55.3647 28.3229 55.4272 28.9167 55.7292C29.0833 55.8126 29.2813 55.9376 29.3542 56.0105C29.4271 56.0834 29.5625 56.1459 29.6458 56.1459C29.7292 56.1459 29.7917 56.1876 29.7917 56.2397C29.7917 56.2917 29.9375 56.3647 30.1042 56.4063C30.2813 56.448 30.4167 56.5209 30.4167 56.5626C30.4167 56.6147 30.5833 56.6876 30.7813 56.7292C30.9792 56.7605 31.1458 56.8334 31.1458 56.8751C31.1458 56.9272 31.2917 56.9897 31.4583 57.0313C31.6354 57.073 31.7708 57.1355 31.7708 57.1876C31.7708 57.2397 31.9167 57.3022 32.0938 57.3438C32.2708 57.3855 32.5313 57.4792 32.6875 57.5626C32.8438 57.6459 33.0521 57.7084 33.1563 57.7084C33.25 57.7084 33.3333 57.7501 33.3333 57.8022C33.3333 57.8647 33.5417 57.9376 33.8021 57.9792C34.0625 58.0105 34.2708 58.0834 34.2708 58.1251C34.2708 58.1772 34.5313 58.2501 34.8438 58.2813C35.1563 58.323 35.4167 58.3959 35.4167 58.4376C35.4167 58.4897 35.7917 58.5626 36.25 58.6042C36.7083 58.6355 37.1146 58.7188 37.1458 58.7605C37.2188 58.8855 42.7083 58.8855 42.7083 58.7605C42.7083 58.7188 42.9063 58.6459 43.1563 58.6147C43.5521 58.5522 44.1042 58.323 44.625 57.9897C44.9688 57.7813 45.8333 56.9063 45.8333 56.7813C45.8333 56.7188 45.875 56.6667 45.9167 56.6667C46.0313 56.6667 46.4583 55.6772 46.4583 55.4167C46.4583 55.3126 46.5 55.1876 46.5625 55.1563C46.625 55.1147 46.6667 54.0105 46.6667 52.1772V49.2605L47.4271 50.0105C47.8333 50.4167 48.3854 50.9272 48.6354 51.1355C48.8854 51.3438 49.7188 52.1147 50.4792 52.8647C52.8854 55.2188 54.1354 56.3959 54.2708 56.4376C54.3542 56.4688 54.5104 56.5938 54.6354 56.7292C54.7604 56.8647 54.8958 56.9792 54.9271 56.9792C54.9583 56.9792 55.2292 57.1459 55.5313 57.3438C55.8438 57.5417 56.1458 57.7084 56.2188 57.7084C56.2917 57.7084 56.3542 57.7501 56.3542 57.8022C56.3542 57.8542 56.5208 57.9272 56.7188 57.9584C56.9167 58.0001 57.0833 58.073 57.0833 58.1147C57.0833 58.1667 57.2917 58.2397 57.5521 58.2709C57.8125 58.3126 58.0208 58.3855 58.0208 58.4376C58.0208 58.4897 58.3542 58.5626 58.75 58.6042C59.1563 58.6355 59.4792 58.7188 59.4792 58.7605C59.4792 58.8855 67.4688 58.8855 67.5417 58.7605C67.5729 58.7084 67.8125 58.6355 68.0729 58.6042C68.3333 58.5626 68.5417 58.4897 68.5417 58.4376C68.5417 58.3959 68.6563 58.323 68.8021 58.2917C69.1042 58.2188 70.2083 57.1355 70.2083 56.9167C70.2083 56.8334 70.25 56.7709 70.3125 56.7709C70.3646 56.7709 70.4375 56.5313 70.4792 56.2501C70.5208 55.9584 70.5938 55.698 70.6354 55.6667C70.7604 55.5938 70.7604 54.4792 70.6354 54.4792C70.5938 54.4792 70.5208 54.2188 70.4896 53.8855C70.4583 53.5626 70.3854 53.2709 70.3229 53.2397C70.2708 53.2084 70.1875 53.0417 70.1563 52.8855C70.1146 52.7292 70.0417 52.6042 70 52.6042C69.9583 52.6042 69.8854 52.4792 69.8438 52.323C69.8125 52.1667 69.7396 52.0105 69.7083 51.9792C69.6667 51.948 69.4479 51.6563 69.2292 51.323C69 51.0001 68.7813 50.7292 68.7396 50.7292C68.6979 50.7292 68.6354 50.6459 68.6042 50.5417C68.5625 50.4376 68.25 50.0417 67.8854 49.6563C66.7188 48.4167 65.9271 47.5417 65.8333 47.4063C65.7396 47.2501 64.8125 46.2188 63.9375 45.3126C63.6146 44.9688 63.25 44.5626 63.125 44.4063C62.8646 44.0626 61.9688 43.0626 61.1458 42.198C60.375 41.3855 59.8958 40.698 59.8958 40.3959C59.8958 40.0834 60.2188 39.4063 60.5104 39.0938C60.6354 38.9688 60.7292 38.823 60.7292 38.7813C60.7292 38.7292 60.8229 38.6147 60.9375 38.5105C61.0521 38.4167 61.1458 38.2709 61.1458 38.1876C61.1458 38.1042 61.2188 38.0209 61.3021 37.9792C61.3854 37.948 61.4583 37.8542 61.4583 37.7605C61.4583 37.6772 61.5 37.6042 61.5625 37.6042C61.6146 37.6042 61.6875 37.4897 61.7292 37.3542C61.7604 37.2084 61.8542 37.073 61.9375 37.0417C62.0208 37.0105 62.0833 36.9376 62.0833 36.8751C62.0833 36.8126 62.1354 36.7084 62.1875 36.6355C62.25 36.5626 62.5313 36.1772 62.8125 35.7813C63.0938 35.3751 63.375 35.0001 63.4375 34.9272C63.4896 34.8542 63.5417 34.7709 63.5417 34.7397C63.5417 34.6563 64 34.0209 64.0938 33.9792C64.1354 33.9584 64.1667 33.8751 64.1667 33.7917C64.1667 33.7084 64.2396 33.6147 64.3229 33.5834C64.4063 33.5417 64.4792 33.4584 64.4792 33.3855C64.4792 33.323 64.5625 33.1667 64.6667 33.0417C65.0729 32.5417 65.2083 32.3438 65.2083 32.2292C65.2083 32.1563 65.2813 32.0834 65.3646 32.0417C65.4479 32.0105 65.5208 31.9167 65.5208 31.823C65.5208 31.7397 65.5625 31.6667 65.625 31.6667C65.6771 31.6667 65.75 31.5522 65.7917 31.4167C65.8229 31.2709 65.9167 31.1355 66 31.1042C66.0833 31.073 66.1458 30.9792 66.1458 30.8855C66.1458 30.8022 66.1875 30.7292 66.25 30.7292C66.3021 30.7292 66.375 30.6147 66.4167 30.4792C66.4479 30.3334 66.5417 30.198 66.625 30.1667C66.7083 30.1355 66.7708 30.0417 66.7708 29.948C66.7708 29.8647 66.8125 29.7917 66.875 29.7917C66.9271 29.7917 67 29.6772 67.0417 29.5313C67.0729 29.3855 67.1458 29.2709 67.1875 29.2709C67.2396 29.2709 67.3021 29.1251 67.3438 28.9584C67.3854 28.7813 67.4479 28.6459 67.5 28.6459C67.5521 28.6459 67.6146 28.5001 67.6563 28.3334C67.6979 28.1563 67.7708 28.0209 67.8125 28.0209C67.8646 28.0209 67.9375 27.8542 67.9792 27.6563C68.0104 27.4584 68.0833 27.2605 68.1354 27.2397C68.1771 27.2084 68.25 26.8959 68.2917 26.5522C68.3333 26.2188 68.4063 25.9063 68.4479 25.8751C68.5729 25.8022 68.5729 24.2709 68.4479 24.2709C68.4063 24.2709 68.3333 24.0522 68.3021 23.7918C68.2813 23.5209 68.2083 23.2813 68.1458 23.2397C68.0938 23.2084 68.0104 23.073 67.9792 22.9376C67.9063 22.7293 67.2292 21.9897 66.7292 21.5834C66.6354 21.5105 66.3958 21.4168 66.1979 21.3855C66 21.3543 65.8333 21.2813 65.8333 21.2397C65.8333 21.1043 57.2188 21.1147 57.1354 21.2501C57.1042 21.3022 56.9479 21.3543 56.7917 21.3543C56.6354 21.3647 56.3229 21.448 56.0938 21.5626C55.8646 21.6772 55.6146 21.7605 55.5521 21.7709C55.4792 21.7709 55.4167 21.8126 55.4167 21.8647C55.4167 21.9168 55.3229 21.9897 55.2083 22.0313C55.0104 22.0938 54.8021 22.2501 54.1667 22.8126C53.7813 23.1563 52.9167 24.4688 52.9167 24.7084C52.9167 24.8126 52.875 24.8959 52.8229 24.8959C52.7708 24.8959 52.7083 25.0834 52.6667 25.3126C52.6354 25.5418 52.5625 25.7293 52.5104 25.7293C52.4583 25.7293 52.3854 25.8647 52.3438 26.0418C52.3021 26.2084 52.2396 26.3543 52.1875 26.3543C52.1354 26.3543 52.0625 26.5105 52.0313 26.6876C51.9896 26.8751 51.9271 27.0522 51.8854 27.0834C51.8542 27.1147 51.6354 27.5105 51.4063 27.9688C51.1771 28.4272 50.9583 28.823 50.9167 28.8542C50.8854 28.8855 50.8125 29.0417 50.7813 29.198C50.7396 29.3542 50.6771 29.4792 50.6354 29.4792C50.6042 29.4792 50.4479 29.698 50.3125 29.9688C50.1667 30.2397 49.9896 30.5313 49.9271 30.6042C49.8542 30.6772 49.7917 30.7917 49.7917 30.8438C49.7917 30.8959 49.7396 31.0001 49.6875 31.073C49.2604 31.573 49.1667 31.7188 49.1667 31.823C49.1667 31.8959 49.0938 31.9792 49.0104 32.0209C48.9271 32.0522 48.8542 32.1459 48.8542 32.2397C48.8542 32.323 48.8125 32.3959 48.7604 32.3959C48.7083 32.3959 48.625 32.5001 48.5938 32.6251C48.5521 32.7397 48.4063 32.948 48.2708 33.073C48.1354 33.198 48.0208 33.3542 48.0208 33.4167C48.0208 33.4792 47.9583 33.573 47.8854 33.6147C47.8021 33.6563 47.6354 33.8542 47.4896 34.0522C47.2188 34.4376 46.9063 34.7917 46.8333 34.7917C46.8021 34.7917 46.7708 32.5001 46.75 29.7084C46.7292 26.1563 46.6875 24.573 46.6042 24.4688C46.5417 24.3855 46.4583 24.1459 46.4167 23.9272C46.375 23.7188 46.3021 23.5418 46.2604 23.5418C46.2083 23.5418 46.1354 23.4168 46.1042 23.2709C46.0208 22.9376 45.9167 22.8022 45.2917 22.1772C45.0208 21.9168 44.6146 21.6147 44.4063 21.5209C44.1875 21.4272 43.9271 21.3022 43.8333 21.2501C43.6042 21.1147 32.5313 21.1147 32.4583 21.2397C32.4271 21.2813 32.1667 21.3543 31.875 21.3959C31.5938 21.4376 31.3542 21.5105 31.3542 21.5522C31.3542 21.6043 31.2396 21.6772 31.0938 21.7084C30.5938 21.8334 29.6875 22.7188 29.5313 23.2397C29.4896 23.3751 29.3958 23.5209 29.3333 23.5626C29.1667 23.6772 29.1771 26.2709 29.3542 26.3334C29.4167 26.3543 29.4792 26.4376 29.4792 26.5105C29.4792 26.5938 29.5417 26.698 29.6146 26.7397C29.7813 26.8542 30.2083 27.4584 30.2083 27.6042C30.2083 27.6563 30.25 27.7084 30.3125 27.7084C30.3646 27.7084 30.4375 27.8751 30.4792 28.073C30.5104 28.2709 30.5833 28.4688 30.6354 28.5001C30.6875 28.5313 30.7292 30.323 30.7292 32.5209V36.4897L30.4792 36.2188C30.3333 36.0626 30.1979 35.8438 30.1563 35.7292C30.125 35.6147 30.0417 35.5209 29.9896 35.5209C29.9375 35.5209 29.8958 35.448 29.8958 35.3647C29.8958 35.2917 29.8333 35.1772 29.7708 35.1355C29.6979 35.0938 29.5208 34.8126 29.375 34.5313C29.2292 34.2397 29.0938 33.9897 29.0625 33.9584C28.9583 33.8542 28.7396 33.4792 28.6146 33.198C28.5521 33.0417 28.4688 32.9167 28.4271 32.9167C28.3854 32.9167 28.3229 32.7917 28.2813 32.6355C28.25 32.4792 28.1771 32.323 28.1458 32.2917C28.0417 32.2084 27.2917 30.6772 27.2917 30.5417C27.2917 30.4688 27.25 30.4167 27.1979 30.4167C27.1458 30.4167 27.0729 30.2709 27.0313 30.1042C26.9896 29.9272 26.9271 29.7917 26.875 29.7917C26.8229 29.7917 26.7604 29.6459 26.7188 29.4792C26.6771 29.3022 26.6042 29.1667 26.5521 29.1667C26.5 29.1667 26.4583 29.0834 26.4583 28.9792C26.4479 28.8855 26.3646 28.6147 26.25 28.3855C26.1354 28.1563 26.0521 27.9063 26.0417 27.8334C26.0417 27.7709 26 27.7084 25.9479 27.7084C25.8958 27.7084 25.8229 27.5417 25.7917 27.3438C25.75 27.1459 25.6771 26.9792 25.625 26.9792C25.5833 26.9792 25.5104 26.7918 25.4688 26.5626C25.4271 26.3334 25.3646 26.1459 25.3125 26.1459C25.2708 26.1459 25.1979 25.9793 25.1667 25.7813C25.125 25.5834 25.0521 25.4168 25 25.4168C24.9375 25.4168 24.8958 25.3126 24.8958 25.1772C24.8854 25.0522 24.8021 24.7605 24.6875 24.5313C24.5729 24.3022 24.4896 24.0313 24.4792 23.9376C24.4792 23.8438 24.4375 23.7293 24.375 23.698C24.3229 23.6668 24.2708 23.5522 24.2708 23.4584C24.2708 23.3647 24.2083 23.1563 24.125 23.0105C24.0521 22.8647 23.9583 22.6355 23.9271 22.4897C23.8438 22.1459 23.2813 21.5938 22.7708 21.3438C22.3854 21.1563 22.0938 21.1459 17.9583 21.1459C15.1354 21.1459 13.5313 21.1876 13.4896 21.2501ZM19.8958 26.3022C19.8958 26.3855 19.9375 26.4584 19.9896 26.4584C20.0417 26.4584 20.1146 26.6459 20.1563 26.8751C20.1979 27.1042 20.2604 27.2917 20.3125 27.2917C20.3542 27.2917 20.4271 27.4584 20.4583 27.6563C20.5 27.8542 20.5729 28.0209 20.6146 28.0209C20.6667 28.0209 20.7292 28.2084 20.7708 28.4376C20.8021 28.6667 20.875 28.8542 20.9271 28.8542C20.9792 28.8542 21.0521 29.0209 21.0833 29.2188C21.125 29.4167 21.1979 29.5834 21.25 29.5834C21.2917 29.5834 21.3646 29.7292 21.4063 29.9063C21.4479 30.0834 21.5417 30.3438 21.625 30.5001C21.7083 30.6563 21.7708 30.8438 21.7708 30.9063C21.7708 30.9792 21.8229 31.0417 21.875 31.0417C21.9375 31.0417 21.9792 31.1042 21.9792 31.1667C21.9896 31.2397 22.0729 31.4897 22.1875 31.7188C22.3021 31.948 22.3854 32.198 22.3958 32.2605C22.3958 32.3334 22.4375 32.3959 22.4896 32.3959C22.5417 32.3959 22.6146 32.5313 22.6563 32.7084C22.6979 32.8751 22.7604 33.0209 22.8125 33.0209C22.8646 33.0209 22.9271 33.1563 22.9688 33.3334C23.0104 33.5001 23.0729 33.6459 23.125 33.6459C23.1771 33.6459 23.2396 33.7813 23.2813 33.9584C23.3229 34.1251 23.3854 34.2709 23.4375 34.2709C23.4896 34.2709 23.5521 34.4063 23.5938 34.5834C23.6354 34.7501 23.6979 34.8959 23.75 34.8959C23.8021 34.8959 23.8646 35.0313 23.9063 35.2084C23.9479 35.3751 24.0208 35.5209 24.0729 35.5209C24.125 35.5209 24.1875 35.6355 24.2292 35.7813C24.2604 35.9272 24.3229 36.0417 24.3646 36.0417C24.4063 36.0417 24.4896 36.1667 24.5521 36.323C24.6875 36.6355 24.9063 37.0001 25.0104 37.0834C25.0521 37.1147 25.1042 37.2397 25.1458 37.3647C25.1875 37.5001 25.2708 37.6042 25.3229 37.6042C25.375 37.6042 25.4167 37.6459 25.4167 37.698C25.4167 37.8438 26.1667 38.9584 26.2604 38.9584C26.3125 38.9584 26.3542 39.0209 26.3542 39.0938C26.3542 39.2397 26.5729 39.5522 27.0104 40.0105C27.1667 40.1772 27.2917 40.3542 27.2917 40.4063C27.2917 40.5522 29.4792 42.7084 29.625 42.7084C29.7083 42.7084 29.7917 42.7709 29.8229 42.8438C29.8438 42.9167 30.0521 43.0626 30.2708 43.1772C30.5 43.2917 30.6979 43.4063 30.7292 43.4376C30.875 43.5938 31.3333 43.8334 31.6146 43.8959C31.7813 43.9376 31.9583 44.0313 32 44.0938C32.0417 44.1667 32.4583 44.2188 33.1563 44.2188C34.0521 44.2188 34.2813 44.1876 34.4479 44.0313C34.5625 43.9376 34.6875 43.8542 34.7292 43.8542C34.875 43.8542 35.2083 43.4688 35.4688 42.9897L35.7292 42.4897V35.1876C35.7292 30.9584 35.6979 27.8438 35.6354 27.7709C35.5833 27.7084 35.5104 27.4063 35.4688 27.1147C35.4271 26.8126 35.3542 26.5418 35.3021 26.5001C35.25 26.4688 35.2083 26.3751 35.2083 26.2918C35.2083 26.1668 35.6979 26.1459 38.4896 26.1459H41.7708V32.8126C41.7708 37.1876 41.8021 39.4792 41.875 39.4792C41.9375 39.4792 41.9792 39.5626 41.9792 39.6667C41.9792 39.7813 42.0625 39.9584 42.1667 40.0834C42.2604 40.198 42.4167 40.3959 42.5 40.5105C42.5833 40.6355 42.6979 40.7292 42.7604 40.7292C42.8229 40.7292 42.9479 40.823 43.0521 40.9376C43.1458 41.0522 43.3021 41.1459 43.3854 41.1459C43.4688 41.1459 43.5417 41.1876 43.5417 41.2397C43.5417 41.2917 43.6667 41.3647 43.8229 41.4063C43.9792 41.4376 44.1458 41.5313 44.1875 41.5938C44.3125 41.8022 46.4375 41.7397 46.8229 41.5313C47 41.4376 47.1979 41.3542 47.2708 41.3542C47.3333 41.3542 47.3958 41.3126 47.3958 41.2605C47.3958 41.2084 47.4896 41.1355 47.5938 41.0938C47.7917 41.0313 50.9375 37.9688 51.1146 37.6772C51.1979 37.5209 51.7292 36.8751 52.1667 36.3751C52.2917 36.2397 52.3958 36.0522 52.3958 35.9792C52.3958 35.8959 52.4375 35.8334 52.4792 35.8334C52.5313 35.8334 52.75 35.5626 52.9792 35.2292C53.1979 34.9063 53.4167 34.6147 53.4688 34.6042C53.5104 34.5834 53.5417 34.5313 53.5417 34.4792C53.5417 34.4272 53.7083 34.1459 53.9063 33.8438C54.1042 33.5313 54.2708 33.2292 54.2708 33.1667C54.2708 33.0938 54.3438 33.0209 54.4271 32.9792C54.5104 32.948 54.5833 32.8542 54.5833 32.7605C54.5833 32.6772 54.6146 32.6042 54.6667 32.6042C54.7083 32.6042 54.8542 32.3438 55 32.0313C55.1458 31.7188 55.2917 31.4584 55.3333 31.4584C55.3646 31.4584 55.4271 31.3126 55.4688 31.1459C55.5104 30.9688 55.5729 30.8334 55.625 30.8334C55.6771 30.8334 55.7396 30.6876 55.7813 30.5209C55.8229 30.3438 55.8854 30.2084 55.9375 30.2084C55.9896 30.2084 56.0521 30.0626 56.0938 29.8959C56.1354 29.7188 56.1979 29.5834 56.25 29.5834C56.3021 29.5834 56.3646 29.4376 56.4063 29.2709C56.4479 29.0938 56.5104 28.9584 56.5625 28.9584C56.6146 28.9584 56.6771 28.8126 56.7188 28.6459C56.7604 28.4688 56.8229 28.3334 56.875 28.3334C56.9167 28.3334 56.9896 28.1667 57.0208 27.9688C57.0625 27.7709 57.1354 27.6042 57.1875 27.6042C57.25 27.6042 57.3229 27.4167 57.3542 27.1876C57.3958 26.9584 57.4583 26.7709 57.5 26.7709C57.5417 26.7709 57.6042 26.6772 57.6354 26.5626C57.6667 26.448 57.7604 26.3543 57.8542 26.3543C57.9479 26.3543 58.0208 26.3022 58.0208 26.2501C58.0208 26.1876 58.9271 26.1459 60.5208 26.1459C62.1979 26.1459 63.0208 26.1772 63.0208 26.2605C63.0208 26.4272 62.5729 27.2292 62.4271 27.323C62.3542 27.3647 62.2917 27.448 62.2917 27.5105C62.2917 27.5626 62.2396 27.6667 62.1875 27.7397C62.125 27.8126 61.8438 28.1876 61.5625 28.5938C61.2813 28.9897 61 29.3751 60.9375 29.448C60.8854 29.5209 60.8333 29.6042 60.8333 29.6355C60.8333 29.7188 60.375 30.3542 60.2917 30.3959C60.2396 30.4167 60.2083 30.5001 60.2083 30.5834C60.2083 30.6667 60.1354 30.7605 60.0521 30.7917C59.9688 30.8334 59.8958 30.9063 59.8958 30.9792C59.8958 31.0938 59.7604 31.2917 59.3542 31.7917C59.25 31.9167 59.1667 32.073 59.1667 32.1355C59.1667 32.2084 59.0938 32.2917 59.0104 32.3334C58.9271 32.3647 58.8542 32.4584 58.8542 32.5522C58.8542 32.6355 58.8125 32.7084 58.75 32.7084C58.6979 32.7084 58.625 32.823 58.5833 32.9584C58.5521 33.1042 58.4583 33.2397 58.375 33.2709C58.2917 33.3022 58.2292 33.3959 58.2292 33.4897C58.2292 33.573 58.1875 33.6459 58.125 33.6459C58.0729 33.6459 58 33.7605 57.9583 33.8959C57.9271 34.0417 57.8333 34.1772 57.75 34.2084C57.6667 34.2397 57.6042 34.3334 57.6042 34.4272C57.6042 34.5105 57.5625 34.5834 57.5208 34.5834C57.4792 34.5834 57.3229 34.7709 57.1875 35.0001C57.0417 35.2292 56.8958 35.4167 56.8542 35.4167C56.8021 35.4167 56.7708 35.4792 56.7708 35.5522C56.7708 35.6251 56.6771 35.7605 56.5625 35.8647C56.4479 35.9584 56.3542 36.1042 56.3542 36.1876C56.3542 36.2709 56.2813 36.3542 56.1979 36.3959C56.1146 36.4272 56.0417 36.5209 56.0417 36.6042C56.0417 36.6876 56.0104 36.7709 55.9688 36.7917C55.9167 36.8022 55.7813 37.0522 55.6458 37.3438C55.5104 37.6251 55.3542 37.948 55.3021 38.0522C55.25 38.1459 55.1771 38.448 55.1354 38.698C55.1042 38.9584 55.0313 39.198 54.9896 39.2292C54.8646 39.3022 54.8646 41.5313 54.9896 41.6042C55.0313 41.6355 55.1042 41.8959 55.1458 42.1876C55.1875 42.4688 55.2604 42.7084 55.3125 42.7084C55.3542 42.7084 55.4271 42.8438 55.4688 43.0209C55.5104 43.198 55.5729 43.3334 55.625 43.3334C55.6667 43.3334 55.7292 43.4376 55.7708 43.573C55.8021 43.7084 55.9375 43.9376 56.0729 44.0834C56.1979 44.2188 56.4167 44.4792 56.5417 44.6459C56.8333 45.0105 57.75 46.0209 58.5625 46.8855C58.8958 47.2292 59.1979 47.5834 59.25 47.6667C59.3438 47.8334 60.375 48.9688 61.375 50.0105C61.6979 50.3438 61.9792 50.6667 62 50.7292C62.0313 50.823 62.9688 51.8751 63.9792 52.9272C64.9271 53.9167 65.0313 53.8542 62.4063 53.8542C61.1458 53.8542 60.0938 53.8126 60.0625 53.7605C60.0208 53.7084 59.7604 53.6355 59.4792 53.5938C59.1875 53.5522 58.9583 53.4792 58.9583 53.4376C58.9583 53.3855 58.8229 53.323 58.6458 53.2813C58.4792 53.2397 58.3333 53.1667 58.3333 53.1147C58.3333 53.0626 58.2604 53.0209 58.1771 53.0209C58.0833 53.0209 57.9896 52.948 57.9583 52.8647C57.9271 52.7813 57.8125 52.6876 57.6979 52.6563C57.5938 52.6147 57.0104 52.1147 56.4167 51.5313C54 49.1667 51.8646 47.1355 51.7188 47.0522C51.6354 47.0105 51.1771 46.5834 50.6979 46.1147C50.2292 45.6459 49.75 45.198 49.6354 45.1355C49.1875 44.8542 48.625 44.5938 48.3021 44.5209C48.1146 44.4897 47.9375 44.3959 47.8958 44.3334C47.7917 44.1772 44.6042 44.1772 44.5 44.3334C44.4583 44.3959 44.25 44.4792 44.0417 44.5209C43.8229 44.5626 43.6458 44.6355 43.6458 44.6876C43.6458 44.7501 43.5729 44.7917 43.4896 44.7917C43.3958 44.7917 43.3021 44.8647 43.2708 44.948C43.2292 45.0313 43.1458 45.1042 43.0729 45.1042C42.8854 45.1042 42.1458 45.8438 41.9167 46.2605C41.7396 46.5834 41.7188 46.9272 41.6875 50.2292L41.6563 53.8542H39.6875C38.6042 53.8542 37.6979 53.8126 37.6667 53.7605C37.6354 53.7188 37.2813 53.6459 36.875 53.6042C36.4792 53.5626 36.1458 53.4897 36.1458 53.4376C36.1458 53.3855 35.9375 53.3126 35.6771 53.2709C35.4167 53.2397 35.2083 53.1667 35.2083 53.1147C35.2083 53.0626 35.1354 53.0209 35.0417 53.0209C34.9479 53.0209 34.6771 52.9272 34.4375 52.823C33.625 52.448 33.25 52.2917 33.1354 52.2917C33.0729 52.2917 33.0208 52.2501 33.0208 52.198C33.0208 52.1459 32.8854 52.073 32.7083 52.0313C32.5417 51.9897 32.3958 51.9272 32.3958 51.8751C32.3958 51.8334 32.2708 51.7605 32.125 51.7292C31.875 51.6667 31.7708 51.5938 31.4271 51.2917C31.3542 51.2292 31.1875 51.1355 31.0625 51.1042C30.9375 51.0626 30.8333 50.9792 30.8333 50.9272C30.8333 50.8751 30.7813 50.8334 30.7188 50.8334C30.6563 50.8334 30.5 50.7501 30.3646 50.6563C30.2396 50.5522 30.0208 50.3959 29.8958 50.3126C29.7708 50.2292 29.5208 50.0313 29.3333 49.8751C29.1563 49.7188 28.9792 49.5834 28.9375 49.5834C28.8958 49.5834 28.7083 49.4167 28.5104 49.2188C28.3125 49.0209 28.125 48.8542 28.0729 48.8542C27.9271 48.8542 23.9583 44.7397 23.9583 44.5834C23.9583 44.5313 23.8229 44.3542 23.6458 44.1876C23.4792 44.0105 23.3333 43.823 23.3333 43.7605C23.3333 43.7084 23.2708 43.6147 23.1979 43.573C23.125 43.5313 22.9583 43.3126 22.8125 43.1042C22.6667 42.8855 22.5208 42.7084 22.4792 42.7084C22.4271 42.7084 22.3958 42.6355 22.3958 42.5522C22.3958 42.4584 22.3229 42.3647 22.2396 42.3334C22.1563 42.2917 22.0833 42.2188 22.0833 42.1459C22.0833 42.0313 21.9479 41.8334 21.5417 41.3334C21.4375 41.2084 21.3542 41.073 21.3542 41.0209C21.3542 40.9376 21.2604 40.8126 20.9688 40.4688C20.8958 40.3959 20.8333 40.2813 20.8333 40.2188C20.8333 40.1667 20.7708 40.0522 20.7083 39.9792C20.5104 39.7605 20.3229 39.4584 20.1771 39.1355C20.1146 38.9792 20.0208 38.8542 19.9792 38.8542C19.9375 38.8542 19.8958 38.7917 19.8958 38.7084C19.8958 38.6251 19.8333 38.4897 19.75 38.4167C19.6771 38.3334 19.5729 38.1563 19.5313 38.0209C19.4896 37.8751 19.4271 37.7397 19.3854 37.7084C19.2813 37.6251 19.0625 37.2605 18.9271 36.948C18.8646 36.7917 18.7708 36.6667 18.7396 36.6667C18.6979 36.6667 18.6354 36.5209 18.5938 36.3542C18.5521 36.1772 18.4896 36.0417 18.4375 36.0417C18.3854 36.0417 18.3229 35.8959 18.2813 35.7292C18.2396 35.5522 18.1771 35.4167 18.125 35.4167C18.0729 35.4167 18.0104 35.2709 17.9688 35.1042C17.9271 34.9272 17.8646 34.7917 17.8125 34.7917C17.7604 34.7917 17.6979 34.6459 17.6563 34.4792C17.6146 34.3022 17.5521 34.1667 17.5 34.1667C17.4479 34.1667 17.3854 34.0209 17.3438 33.8438C17.3021 33.6667 17.2083 33.4063 17.125 33.2501C17.0417 33.0938 16.9792 32.9063 16.9792 32.8334C16.9792 32.7709 16.9375 32.7084 16.875 32.7084C16.8229 32.7084 16.75 32.5417 16.7083 32.3438C16.6771 32.1459 16.6042 31.9792 16.5521 31.9792C16.5 31.9792 16.4583 31.9167 16.4583 31.8438C16.4583 31.7813 16.3958 31.5938 16.3125 31.4376C16.2292 31.2813 16.1354 31.0209 16.0938 30.8438C16.0521 30.6667 15.9896 30.5209 15.9375 30.5209C15.8958 30.5209 15.8229 30.3542 15.7917 30.1563C15.75 29.9584 15.6563 29.6667 15.5729 29.5105C15.4896 29.3542 15.4167 29.1355 15.4167 29.0313C15.4167 28.9376 15.375 28.8542 15.3229 28.8542C15.2708 28.8542 15.1979 28.6667 15.1563 28.4376C15.1146 28.2084 15.0521 28.0209 15 28.0209C14.9479 28.0209 14.8854 27.823 14.8438 27.573C14.8021 27.3334 14.7292 27.1147 14.6771 27.0834C14.6354 27.0522 14.5625 26.823 14.5208 26.5834L14.4479 26.1459H17.1771C19.5208 26.1459 19.8958 26.1668 19.8958 26.3022Z" fill="black"/>
</svg>
