<svg width="45" height="46" viewBox="0 0 45 46" fill="none" xmlns="http://www.w3.org/2000/svg">
<path d="M5.8261 0.605637C3.60422 0.816906 1.65012 2.57043 1.08561 4.85212C0.948098 5.4155 0.940861 5.75352 0.940861 23.169C0.940861 40.8451 0.940861 40.9085 1.09285 41.5141C1.47643 43.0704 2.44624 44.338 3.872 45.1268C4.43652 45.4437 4.78391 45.5563 5.54384 45.7113C6.05769 45.8099 7.80914 45.8169 22.8701 45.8028C38.3799 45.7817 39.6536 45.7676 40.0228 45.662C40.6379 45.4718 41.6801 44.9366 42.1795 44.5423C43.2579 43.7042 44.0178 42.2394 44.2132 40.6408C44.3218 39.7465 44.3218 6.6338 44.2132 5.69014C44.0395 4.19719 43.4678 3.04226 42.3966 2.04226C41.4702 1.17606 40.457 0.718311 39.1905 0.598595C38.4305 0.528172 6.57879 0.535213 5.8261 0.605637ZM39.6971 2.2324C39.9649 2.30986 40.2978 2.44366 40.4425 2.52113C41.4196 3.0493 42.2012 4.11972 42.4473 5.25352C42.6065 5.99296 42.6137 40.2394 42.4545 41.0493C42.2157 42.2606 41.3906 43.3592 40.334 43.8803C39.4799 44.2958 40.732 44.2676 22.5951 44.2676C6.04322 44.2676 5.92018 44.2676 5.42804 44.1268C4.23387 43.7817 3.23511 42.7746 2.80811 41.4859L2.64165 40.993V23.1408V5.28873L2.80087 4.83803C3.2713 3.54226 4.14702 2.66902 5.39909 2.23944L5.8261 2.09155L22.5155 2.08451C39.1977 2.08451 39.2122 2.08451 39.6971 2.2324Z" fill="#2E2C2F"/>
<path d="M9.99483 9.62677C8.80066 9.90845 7.64992 10.507 6.81038 11.2676C6.07941 11.9296 5.24711 13.3028 4.97209 14.3028C4.79115 14.9578 4.71154 15.9437 4.79115 16.6761C4.87076 17.5211 5.01551 18.0211 5.39909 18.8239C5.89123 19.8732 6.54984 20.6479 7.4907 21.3028C8.74276 22.1761 9.99483 22.5775 11.4713 22.5775C12.9766 22.5775 14.359 22.1268 15.5676 21.2394C16.3493 20.669 16.4723 20.1408 15.9584 19.6408C15.763 19.4507 15.6617 19.4085 15.4156 19.4085C15.0682 19.4085 14.938 19.4718 14.4531 19.8451C13.6642 20.4437 12.5424 20.8169 11.5074 20.8169C10.1323 20.8169 9.03226 20.3732 8.02626 19.4085C7.51965 18.9225 7.35319 18.6972 7.10711 18.2113C6.68011 17.338 6.58602 16.9507 6.58602 16.0211C6.58602 14.6197 7.01303 13.6338 8.0335 12.6479C8.74276 11.9507 9.51716 11.5282 10.4074 11.3451C11.8259 11.0563 13.3964 11.3944 14.4386 12.2042C14.9163 12.5704 15.0682 12.6479 15.3433 12.6479C15.8716 12.6479 16.3493 12.1127 16.2552 11.6268C16.1321 10.993 14.5689 10.0211 13.0707 9.65493C12.1733 9.42958 10.8416 9.42254 9.99483 9.62677Z" fill="#2E2C2F"/>
<path d="M17.6882 9.61268C17.5651 9.6831 17.4276 9.83803 17.3842 9.94367C17.3191 10.0986 17.2974 11.6408 17.3118 16.162L17.3335 22.169L17.5868 22.3732L17.8329 22.5775H21.7194C25.548 22.5775 25.6059 22.5775 25.794 22.4296C26.0546 22.2324 26.1993 21.9366 26.1993 21.6197C26.1993 21.3662 26.0835 21.2394 23.2899 18.5141L20.3805 15.6761H22.9063C25.7434 15.6761 25.8013 15.669 26.0691 15.1761C26.2862 14.7817 26.2283 14.507 25.8519 14.1056L25.6638 13.9155H22.3852H19.1067V12.5775V11.2394H22.3708H25.6348L25.8737 11.007C26.0112 10.8732 26.1414 10.6761 26.1704 10.5704C26.25 10.2676 26.0618 9.83099 25.7723 9.64085L25.5263 9.47888H21.7194C18.1224 9.47888 17.8981 9.48592 17.6882 9.61268ZM21.097 18.9155L23.0511 20.8169H21.0753H19.1067V18.9155C19.1067 17.8662 19.1139 17.0141 19.1284 17.0141C19.1357 17.0141 20.0258 17.8662 21.097 18.9155Z" fill="#2E2C2F"/>
<path d="M32.0616 9.65494C29.7312 10.2465 27.9218 11.9085 27.256 14.0775C26.6698 16 26.952 17.9859 28.0521 19.6338C29.8976 22.3873 33.6973 23.3803 36.7153 21.8944C38.2568 21.1409 39.5523 19.7042 40.0879 18.162C40.4787 17.0493 40.5583 15.8733 40.3195 14.7465C40.1747 14.0704 40.1385 13.9648 39.8273 13.2817C39.1326 11.7676 37.6199 10.4225 35.9698 9.83804C34.7901 9.42959 33.263 9.35917 32.0616 9.65494ZM34.7539 11.338C35.029 11.3944 35.5283 11.5704 35.8685 11.7324C36.3823 11.9718 36.6067 12.1409 37.1423 12.6549C37.6995 13.2042 37.8371 13.3873 38.1193 13.9578C38.5101 14.7676 38.6042 15.2958 38.5536 16.3803C38.4884 17.6127 38.1772 18.3451 37.3015 19.2606C36.2883 20.324 35.1448 20.8169 33.69 20.8169C32.3584 20.8169 31.2872 20.4014 30.3319 19.5211C29.2535 18.5141 28.8048 17.493 28.8048 16.0282C28.8048 15.1409 28.9278 14.5704 29.268 13.9155C29.9194 12.6549 31.2293 11.6409 32.5682 11.3521C33.1907 11.2183 34.1532 11.2183 34.7539 11.338Z" fill="#2E2C2F"/>
<path d="M6.98408 23.7394C6.94789 23.7535 6.81762 23.7817 6.70906 23.8099C6.59326 23.831 6.41956 23.9366 6.32548 24.0352L6.15178 24.2183V30.2817V36.3451L6.33271 36.5352C6.43404 36.6409 6.59326 36.7465 6.68735 36.7747C6.78143 36.7958 7.99731 36.8028 9.37965 36.7887C11.8983 36.7606 11.9055 36.7606 12.4338 36.5704C14.5327 35.831 15.8644 34.2254 16.1394 32.1127C16.2117 31.5352 16.2045 31.3028 16.1177 30.7465C15.8861 29.2676 15.1623 28.0845 13.9464 27.2042L13.4543 26.8451L14.3156 26C14.7932 25.5282 15.2202 25.0775 15.2636 24.993C15.4518 24.6338 15.2636 24.1268 14.8584 23.8662C14.6774 23.7465 14.3879 23.7394 10.8561 23.7254C8.76448 23.7183 7.0275 23.7254 6.98408 23.7394ZM11.7969 25.8521L11.4785 26.169H9.71981H7.96113V25.8521V25.5352H10.0383H12.1154L11.7969 25.8521ZM8.9237 28.6197C7.86704 29.6409 7.96113 29.6338 7.96113 28.7113V27.9296H8.80066H9.6402L8.9237 28.6197ZM12.4628 28.3592C13.1431 28.6972 13.9682 29.6972 14.2142 30.4789C14.3952 31.0563 14.3517 32.2465 14.1201 32.8028C13.7655 33.6761 12.9332 34.493 12.0285 34.8451C11.645 34.993 11.493 35.007 9.79218 35.0282L7.96113 35.0493V33.5845V32.1197L10.0021 30.169C11.1311 29.0986 12.0792 28.2183 12.1081 28.2183C12.1371 28.2113 12.3036 28.2817 12.4628 28.3592Z" fill="#2E2C2F"/>
<path d="M22.3925 23.7887C22.1175 23.8732 21.922 24.162 21.1549 25.6056C20.5831 26.6761 20.2285 27.338 19.5409 28.5986C19.3528 28.9437 18.9909 29.6127 18.7448 30.0775C18.4915 30.5423 18.1658 31.1409 18.0211 31.4155C17.8691 31.6831 17.529 32.3169 17.2612 32.8239C16.9934 33.3239 16.6677 33.9296 16.5374 34.162C15.6689 35.7254 15.5893 35.9859 15.8209 36.3803C16.067 36.7817 16.6605 36.9296 17.0802 36.6831C17.196 36.6197 17.377 36.4085 17.4855 36.2113C17.7461 35.7535 18.4843 34.3732 18.9764 33.4437C19.1863 33.0423 19.3745 32.7183 19.3962 32.7183C19.4179 32.7183 20.0331 33.5916 20.7713 34.662C21.5023 35.7254 22.1536 36.6408 22.2115 36.6831C22.2694 36.7324 22.501 36.7676 22.7326 36.7676C23.0583 36.7676 23.1813 36.7324 23.3189 36.6127C23.4129 36.5282 24.0571 35.6197 24.7519 34.5916C25.4467 33.5634 26.0329 32.7183 26.0546 32.7183C26.0763 32.7183 26.2283 32.9789 26.402 33.2958C27.5817 35.5423 28.0232 36.3099 28.2475 36.5493C28.5008 36.8169 28.5225 36.8169 28.9134 36.7887C29.4489 36.7465 29.6805 36.5352 29.7239 36.0493C29.7601 35.6901 29.7674 35.7183 28.841 34.0211C28.6745 33.7113 28.3344 33.0775 28.0811 32.6127C27.5744 31.669 27.0389 30.6831 26.6336 29.9366C26.3224 29.3662 25.823 28.4437 25.2223 27.331C24.9907 26.9014 24.6578 26.2887 24.4768 25.9578C23.355 23.8803 23.3985 23.9507 23.0366 23.8028C22.7688 23.6901 22.7037 23.6901 22.3925 23.7887ZM23.1524 27.3099C23.3695 27.7113 23.659 28.2535 23.811 28.5282C23.963 28.7958 24.3104 29.4507 24.5854 29.9718L25.092 30.9225L23.9123 32.6338L22.7399 34.3521L22.3563 33.7958C20.9522 31.7817 20.4094 30.9648 20.4094 30.8944C20.4094 30.8169 20.7641 30.1338 21.8135 28.2113C22.0378 27.8028 22.3273 27.2747 22.4504 27.0282C22.5806 26.7887 22.7037 26.5916 22.7254 26.5916C22.7471 26.5916 22.9425 26.9155 23.1524 27.3099Z" fill="#2E2C2F"/>
<path d="M31.2221 23.8099C31.0991 23.8662 30.9398 23.993 30.8602 24.1056C30.7299 24.2958 30.7227 24.5352 30.701 29.9366C30.6865 33.0352 30.701 35.7394 30.7227 35.9437C30.7951 36.493 31.0412 36.7465 31.5622 36.7887C31.9096 36.8169 31.9892 36.7958 32.1919 36.6268C32.3149 36.5282 32.4524 36.3239 32.4959 36.1831C32.5321 36.0423 32.5682 35.1831 32.5682 34.2817V32.6479H33.8275C35.9481 32.6479 36.7732 32.3732 37.8515 31.3169C38.9371 30.2465 39.3352 29.1127 39.1543 27.5845C38.9371 25.7183 37.3883 24.1408 35.456 23.8099C34.6381 23.669 31.555 23.669 31.2221 23.8099ZM35.8251 25.7676C36.7008 26.2042 37.2074 26.9296 37.3811 27.9789C37.439 28.331 37.2581 29.0775 37.012 29.507C36.7659 29.9296 36.1869 30.4437 35.7093 30.6479C35.3329 30.8099 35.2388 30.8169 33.9433 30.8169H32.5682V28.169V25.5282L34.0012 25.5493C35.4053 25.5704 35.4342 25.5704 35.8251 25.7676Z" fill="#2E2C2F"/>
</svg>
