<svg width="80" height="80" viewBox="0 0 80 80" fill="none" xmlns="http://www.w3.org/2000/svg">
<path d="M61.4811 23.2341C61.0325 23.2277 60.5886 23.1413 60.1704 22.9787C59.9689 22.8939 59.7752 22.7913 59.5917 22.6724C59.4035 22.5464 59.227 22.404 59.0641 22.2468C58.43 21.6023 58.0753 20.7339 58.0768 19.8298C58.0739 19.6066 58.0967 19.3839 58.1449 19.166C58.1811 18.9491 58.244 18.7376 58.3321 18.5362C58.4166 18.329 58.5191 18.1296 58.6385 17.9404C58.7662 17.7589 58.9085 17.5881 59.0641 17.4298C59.2271 17.2727 59.4036 17.1303 59.5917 17.0043C59.7751 16.8847 59.9688 16.7816 60.1704 16.6962C60.3801 16.6106 60.5965 16.5423 60.8172 16.4919C61.3657 16.3852 61.9319 16.415 62.4662 16.5785C63.0005 16.7421 63.4863 17.0344 63.8811 17.4298C64.0408 17.5842 64.1835 17.7554 64.3066 17.9404C64.4309 18.1296 64.5391 18.3289 64.63 18.5362C64.7098 18.7406 64.7724 18.9512 64.8172 19.166C64.8564 19.3853 64.8791 19.6071 64.8853 19.8298C64.8868 20.2792 64.7988 20.7244 64.6264 21.1393C64.4539 21.5543 64.2006 21.9308 63.8811 22.2468C63.7266 22.4073 63.5548 22.55 63.3687 22.6724C63.1801 22.7917 62.9813 22.8942 62.7747 22.9787C62.5733 23.0668 62.3617 23.1297 62.1449 23.166C61.927 23.2141 61.7042 23.2369 61.4811 23.2341ZM40.0002 58.6111C36.3189 58.6111 32.7202 57.5194 29.6593 55.4741C26.5985 53.4289 24.2128 50.5219 22.8041 47.1207C21.3954 43.7196 21.0269 39.9771 21.7452 36.3665C22.4635 32.756 24.2364 29.4395 26.8396 26.8365C29.4428 24.2335 32.7595 22.461 36.3701 21.743C39.9807 21.025 43.7232 21.3938 47.1242 22.8029C50.5252 24.2119 53.432 26.5978 55.477 29.6589C57.522 32.7199 58.6133 36.3187 58.613 40C58.6076 44.9348 56.6449 49.6659 53.1555 53.1553C49.6661 56.6447 44.935 58.6074 40.0002 58.6128V58.6111ZM40.0002 26.4919C37.3285 26.4916 34.7167 27.2835 32.4951 28.7676C30.2735 30.2517 28.5418 32.3613 27.5192 34.8295C26.4965 37.2978 26.2288 40.0138 26.7498 42.6343C27.2708 45.2547 28.5572 47.6618 30.4463 49.5511C32.3353 51.4404 34.7422 52.7271 37.3626 53.2484C39.983 53.7698 42.6991 53.5024 45.1674 52.48C47.6358 51.4577 49.7456 49.7263 51.23 47.5049C52.7143 45.2835 53.5066 42.6717 53.5066 40C53.503 36.4189 52.0789 32.9854 49.5468 30.4529C47.0147 27.9205 43.5814 26.496 40.0002 26.4919Z" fill="#222222"/>
<path d="M32.4494 42.553C31.7723 42.553 31.1229 42.284 30.6441 41.8052C30.1652 41.3264 29.8962 40.677 29.8962 39.9998C29.8987 37.9071 30.5501 35.8665 31.7606 34.1594C32.9711 32.4523 34.6813 31.1626 36.6554 30.4679C36.9733 30.3496 37.3117 30.2958 37.6507 30.3098C37.9896 30.3237 38.3224 30.4051 38.6296 30.5491C38.9368 30.6931 39.2122 30.8969 39.4397 31.1485C39.6672 31.4002 39.8423 31.6946 39.9547 32.0147C40.0671 32.3348 40.1146 32.6741 40.0945 33.0127C40.0743 33.3514 39.9868 33.6826 39.8371 33.9871C39.6875 34.2915 39.4787 34.5631 39.2229 34.786C38.9671 35.0088 38.6694 35.1784 38.3473 35.2849C37.3708 35.6287 36.5249 36.2667 35.9259 37.111C35.327 37.9554 35.0044 38.9646 35.0026 39.9998C35.0026 40.677 34.7336 41.3264 34.2548 41.8052C33.776 42.284 33.1266 42.553 32.4494 42.553Z" fill="#222222"/>
<path d="M51.9149 80H28.0851C20.6392 79.991 13.5009 77.0291 8.23589 71.7641C2.97086 66.4991 0.00900892 59.3608 0 51.9149V28.0851C0.00900892 20.6392 2.97086 13.5009 8.23589 8.23589C13.5009 2.97086 20.6392 0.00900892 28.0851 0H51.9149C59.3608 0.00900892 66.4991 2.97086 71.7641 8.23589C77.0291 13.5009 79.991 20.6392 80 28.0851V51.9149C79.991 59.3608 77.0291 66.4991 71.7641 71.7641C66.4991 77.0291 59.3608 79.991 51.9149 80ZM28.0851 5.10638C21.9928 5.11314 16.152 7.53628 11.8442 11.8442C7.53628 16.152 5.11314 21.9928 5.10638 28.0851V51.9149C5.11314 58.0072 7.53628 63.848 11.8442 68.1558C16.152 72.4637 21.9928 74.8869 28.0851 74.8936H51.9149C58.0072 74.8869 63.848 72.4637 68.1558 68.1558C72.4637 63.848 74.8869 58.0072 74.8936 51.9149V28.0851C74.8869 21.9928 72.4637 16.152 68.1558 11.8442C63.848 7.53628 58.0072 5.11314 51.9149 5.10638H28.0851Z" fill="#222222"/>
</svg>
