<?xml version="1.0" encoding="UTF-8" standalone="no"?>
<svg
   xmlns:dc="http://purl.org/dc/elements/1.1/"
   xmlns:cc="http://creativecommons.org/ns#"
   xmlns:rdf="http://www.w3.org/1999/02/22-rdf-syntax-ns#"
   xmlns:svg="http://www.w3.org/2000/svg"
   xmlns="http://www.w3.org/2000/svg"
   viewBox="0 0 3930.7068 2645.6667"
   height="2645.6667"
   width="3930.7068"
   xml:space="preserve"
   id="svg2"
   version="1.1"><metadata
     id="metadata8"><rdf:RDF><cc:Work
         rdf:about=""><dc:format>image/svg+xml</dc:format><dc:type
           rdf:resource="http://purl.org/dc/dcmitype/StillImage" /></cc:Work></rdf:RDF></metadata><defs
     id="defs6"><clipPath
       id="clipPath18"
       clipPathUnits="userSpaceOnUse"><path
         id="path16"
         d="M 0,1984.252 H 2948.031 V 0 H 0 Z" /></clipPath></defs><g
     transform="matrix(1.3333333,0,0,-1.3333333,0,2645.6667)"
     id="g10"><g
       id="g12"><g
         clip-path="url(#clipPath18)"
         id="g14"><g
           transform="translate(2e-4,1983.7484)"
           id="g20"><path
             id="path22"
             style="fill:#000000;fill-opacity:1;fill-rule:nonzero;stroke:none"
             d="m 0,0 h 567.026 v -42.32 h -18.572 c -13.126,0 -23.766,-10.636 -23.766,-23.756 v -330.422 h -42.842 v 330.422 c 0,13.12 -10.64,23.756 -23.766,23.756 H 179.509 c -13.126,0 -23.766,-10.636 -23.766,-23.756 v -1850.841 c 0,-13.12 10.64,-23.755 23.766,-23.755 h 19.076 v -42.825 H 0 v 42.825 h 18.972 c 13.126,0 23.766,10.635 23.766,23.755 V -66.18 c 0,13.12 -10.64,23.756 -23.766,23.756 l -18.972,0 z" /></g><g
           transform="translate(1233.3444,1743.1796)"
           id="g24"><path
             id="path26"
             style="fill:#000000;fill-opacity:1;fill-rule:nonzero;stroke:none"
             d="M 0,0 V -1501.604" /></g><g
           transform="translate(1544.006,1743.1796)"
           id="g28"><path
             id="path30"
             style="fill:#000000;fill-opacity:1;fill-rule:nonzero;stroke:none"
             d="m 0,0 c 0,-38.36 -31.11,-69.457 -69.486,-69.457 -38.376,0 -69.486,31.097 -69.486,69.457 0,38.359 31.11,69.456 69.486,69.456 C -31.11,69.456 0,38.359 0,0" /></g><g
           transform="translate(2139.2571,1700.8593)"
           id="g32"><path
             id="path34"
             style="fill:#000000;fill-opacity:1;fill-rule:nonzero;stroke:none"
             d="m 0,0 c 0,-38.359 -31.11,-69.456 -69.486,-69.456 -38.376,0 -69.486,31.097 -69.486,69.456 0,38.36 31.11,69.457 69.486,69.457 C -31.11,69.457 0,38.36 0,0" /></g><g
           transform="translate(1544.006,243.1571)"
           id="g36"><path
             id="path38"
             style="fill:#000000;fill-opacity:1;fill-rule:nonzero;stroke:none"
             d="m 0,0 c 0,38.359 -31.11,69.456 -69.486,69.456 -38.376,0 -69.486,-31.097 -69.486,-69.456 0,-38.359 31.11,-69.456 69.486,-69.456 C -31.11,-69.456 0,-38.359 0,0" /></g><g
           transform="translate(1233.3448,243.1571)"
           id="g40"><path
             id="path42"
             style="fill:#000000;fill-opacity:1;fill-rule:nonzero;stroke:none"
             d="m 0,0 c 0,-133.141 107.978,-241.072 241.175,-241.072 133.197,0 241.175,107.931 241.175,241.072 l -0.504,-1.581 v 358.086 c 0,13.145 10.661,23.802 23.812,23.802 h 18.526 v 42.824 H 337.191 v -42.824 h 18.926 c 13.152,0 23.813,-10.657 23.813,-23.802 V -1.581 L 380.033,0 c 0,-76.656 -62.169,-138.799 -138.858,-138.799 -76.69,0 -138.859,62.143 -138.859,138.799 v -1.581 1501.603 c 0,76.657 62.169,138.8 138.859,138.8 76.689,0 138.858,-62.143 138.858,-138.8 l -0.103,15.436 V 532.076 c 0,-13.145 -10.661,-23.802 -23.813,-23.802 H 337.191 V 465.45 h 186.993 v 42.824 h -18.526 c -13.151,0 -23.812,10.657 -23.812,23.802 v 983.382 l 0.504,-15.436 c 0,133.141 -107.978,241.073 -241.175,241.073 C 107.978,1741.095 0,1633.163 0,1500.022" /></g><g
           transform="translate(2734.2561,243.1571)"
           id="g44"><path
             id="path46"
             style="fill:#000000;fill-opacity:1;fill-rule:nonzero;stroke:none"
             d="m 0,0 c 0,38.359 -31.109,69.456 -69.485,69.456 -38.376,0 -69.487,-31.097 -69.487,-69.456 0,-38.359 31.111,-69.456 69.487,-69.456 C -31.109,-69.456 0,-38.359 0,0" /></g><g
           transform="translate(948.7541,949.784)"
           id="g48"><path
             id="path50"
             style="fill:#000000;fill-opacity:1;fill-rule:nonzero;stroke:none"
             d="m 0,0 c 0,38.359 -31.11,69.456 -69.486,69.456 -38.376,0 -69.486,-31.097 -69.486,-69.456 0,-38.36 31.11,-69.456 69.486,-69.456 C -31.11,-69.456 0,-38.36 0,0" /></g><g
           transform="translate(1120.4435,243.1571)"
           id="g52"><path
             id="path54"
             style="fill:#000000;fill-opacity:1;fill-rule:nonzero;stroke:none"
             d="m 0,0 c 0,-133.141 -107.978,-241.072 -241.175,-241.072 -133.197,0 -241.175,107.931 -241.175,241.072 v -1.581 358.864 c 0,12.993 -10.534,23.528 -23.528,23.528 h -19.314 v 42.32 H -338.2 v -42.32 h -18.306 c -12.994,0 -23.528,-10.535 -23.528,-23.528 V -1.329 0 c 0,-76.656 62.169,-138.799 138.859,-138.799 76.689,0 138.858,62.143 138.858,138.799 l -0.504,-16.734 v 525.269 l 0.001,0.608 c -39.167,-27.467 -86.878,-43.588 -138.355,-43.588 -133.197,0 -241.175,107.931 -241.175,241.072 v 0.4 967.717 c 0,12.993 -10.534,23.527 -23.528,23.527 h -19.314 v 42.32 H -338.2 v -42.32 h -18.81 c -12.994,0 -23.528,-10.534 -23.528,-23.527 V 707.027 l 0.504,-0.4 c 0,-76.657 62.169,-138.8 138.859,-138.8 76.689,0 138.858,62.143 138.858,138.8 l -0.101,968.119 c -10e-4,12.993 -10.535,23.525 -23.528,23.525 h -19.213 v 42.32 H 41.834 v -42.32 H 23.023 c -12.994,0 -23.527,-10.534 -23.527,-23.527 V -16.734" /></g><g
           transform="translate(2207.0295,1941.4281)"
           id="g56"><path
             id="path58"
             style="fill:#000000;fill-opacity:1;fill-rule:nonzero;stroke:none"
             d="m 0,0 c 63.019,-43.49 103.917,-115.911 103.917,-198.249 0,-6.956 -0.437,-1471.124 -0.497,-1676.324 -0.004,-13.148 10.658,-23.779 23.811,-23.779 h 18.52 v -42.824 H -41.242 v 42.824 h 19.03 c 13.15,0 23.812,10.656 23.812,23.802 v 1676.301 c 0,75.753 -60.711,137.332 -136.151,138.774 -77.847,1.488 -141.566,-63.688 -141.566,-141.515 v -1589.88 c -0.279,-83.093 -67.746,-150.306 -150.875,-150.306 h -63.839 v 42.824 h 34.753 c 42.882,0 77.644,34.748 77.644,77.611 v 1622.492 c 0,82.351 40.883,154.761 103.918,198.249 h -146.76 V 42.32 H 145.751 V 0 Z" /></g><g
           transform="translate(2803.8811,1917.6263)"
           id="g60"><path
             id="path62"
             style="fill:#000000;fill-opacity:1;fill-rule:nonzero;stroke:none"
             d="m 0,0 c 0,13.146 -10.661,23.802 -23.812,23.802 h -19.03 v 42.32 H 144.15 V 23.802 H 125.625 C 112.474,23.802 101.813,13.146 101.813,0 v -1849.237 c 0,-13.145 10.661,-23.803 23.812,-23.803 h 18.525 v -44.335 H 0 v 45.954 c -39.308,-27.791 -87.302,-44.121 -139.11,-44.121 -133.198,0 -241.175,107.932 -241.175,241.073 l 0.147,-1.329 V 0 c 0,13.146 -10.661,23.802 -23.812,23.802 h -18.422 v 42.32 h 186.993 v -42.32 h -19.03 c -13.151,0 -23.812,-10.656 -23.812,-23.802 v -1675.798 l 0.252,1.329 c 0,-76.656 62.169,-138.799 138.859,-138.799 76.689,0 138.858,62.143 138.858,138.799 z" /></g></g></g></g></svg>