<svg width="80" height="80" viewBox="0 0 80 80" fill="none" xmlns="http://www.w3.org/2000/svg">
<g clip-path="url(#clip0_1_275)">
<path d="M40 0C17.91 0 0 17.91 0 40C0 62.09 17.91 80 40 80C62.09 80 80 62.09 80 40C80 17.91 62.09 0 40 0ZM59.6467 27.4033L53.08 58.3367C52.5967 60.53 51.29 61.0633 49.4667 60.03L39.4667 52.6633L34.6467 57.31C34.18 57.91 33.4567 58.2933 32.6467 58.2933C32.64 58.2933 32.6367 58.2933 32.63 58.2933L33.34 48.1133L51.8733 31.3733C52.6733 30.6633 51.6933 30.26 50.63 30.97L27.7333 45.39L17.8667 42.31C15.7333 41.6333 15.6733 40.1767 18.3167 39.13L56.87 24.27C58.6633 23.6167 60.2233 24.6967 59.6433 27.4067L59.6467 27.4033Z" fill="black"/>
</g>
<defs>
<clipPath id="clip0_1_275">
<rect width="80" height="80" fill="white"/>
</clipPath>
</defs>
</svg>
